HIERARCHY
ROOT hip
{
  OFFSET 0 0 0
  CHANNELS 6 Xposition Yposition Zposition Zrotation Yrotation Xrotation
  JOINT abdomen
  {
    OFFSET 0 20.6881 -0.73152
    CHANNELS 3 Zrotation Xrotation Yrotation
    JOINT chest
    {
      OFFSET 0 11.7043 -0.48768
      CHANNELS 3 Zrotation Xrotation Yrotation
      JOINT neck
      {
        OFFSET 0 22.1894 -2.19456
        CHANNELS 3 Zrotation Xrotation Yrotation
        JOINT head
        {
          OFFSET -0.24384 7.07133 1.2192
          CHANNELS 3 Zrotation Xrotation Yrotation
          JOINT leftEye
          {
            OFFSET 4.14528 8.04674 8.04672
            CHANNELS 3 Zrotation Xrotation Yrotation
            End Site
            {
              OFFSET 1 0 0
            }
          }
          JOINT rightEye
          {
            OFFSET -3.6576 8.04674 8.04672
            CHANNELS 3 Zrotation Xrotation Yrotation
            End Site
            {
              OFFSET 1 0 0
            }
          }
        }
      }
      JOINT rCollar
      {
        OFFSET -2.68224 19.2634 -4.8768
        CHANNELS 3 Zrotation Xrotation Yrotation
        JOINT rShldr
        {
          OFFSET -8.77824 -1.95073 1.46304
          CHANNELS 3 Zrotation Xrotation Yrotation
          JOINT rForeArm
          {
            OFFSET -28.1742 -1.7115 0.48768
            CHANNELS 3 Zrotation Xrotation Yrotation
            JOINT rHand
            {
              OFFSET -22.5879 0.773209 7.07136
              CHANNELS 3 Zrotation Xrotation Yrotation
              JOINT rThumb1
              {
                OFFSET -1.2192 -0.487915 3.41376
                CHANNELS 3 Zrotation Xrotation Yrotation
                JOINT rThumb2
                {
                  OFFSET -3.37035 -0.52449 3.41376
                  CHANNELS 3 Zrotation Xrotation Yrotation
                  End Site
                  {
                    OFFSET -1.78271 -1.18214 1.43049
                  }
                }
              }
              JOINT rIndex1
              {
                OFFSET -7.75947 0.938293 5.60832
                CHANNELS 3 Zrotation Xrotation Yrotation
                JOINT rIndex2
                {
                  OFFSET -2.54057 -0.884171 1.56538
                  CHANNELS 3 Zrotation Xrotation Yrotation
                  End Site
                  {
                    OFFSET -1.62519 -0.234802 1.16502
                  }
                }
              }
              JOINT rMid1
              {
                OFFSET -8.24714 1.18213 3.41376
                CHANNELS 3 Zrotation Xrotation Yrotation
                JOINT rMid2
                {
                  OFFSET -3.10165 -0.590103 1.0647
                  CHANNELS 3 Zrotation Xrotation Yrotation
                  End Site
                  {
                    OFFSET -2.48547 -0.328903 0.83742
                  }
                }
              }
              JOINT rRing1
              {
                OFFSET -8.82822 0.546677 1.51678
                CHANNELS 3 Zrotation Xrotation Yrotation
                JOINT rRing2
                {
                  OFFSET -2.60934 -0.819778 -0.0198488
                  CHANNELS 3 Zrotation Xrotation Yrotation
                  End Site
                  {
                    OFFSET -2.33842 -0.294052 0.168128
                  }
                }
              }
              JOINT rPinky1
              {
                OFFSET -8.27202 -0.0477905 -0.4584
                CHANNELS 3 Zrotation Xrotation Yrotation
                JOINT rPinky2
                {
                  OFFSET -1.82734 -0.647385 -0.700984
                  CHANNELS 3 Zrotation Xrotation Yrotation
                  End Site
                  {
                    OFFSET -1.69225 -0.51767 -0.607171
                  }
                }
              }
            }
          }
        }
      }
      JOINT lCollar
      {
        OFFSET 2.68224 19.2634 -4.8768
        CHANNELS 3 Zrotation Xrotation Yrotation
        JOINT lShldr
        {
          OFFSET 8.77824 -1.95073 1.46304
          CHANNELS 3 Zrotation Xrotation Yrotation
          JOINT lForeArm
          {
            OFFSET 28.1742 -1.7115 0.48768
            CHANNELS 3 Zrotation Xrotation Yrotation
            JOINT lHand
            {
              OFFSET 22.5879 0.773209 7.07136
              CHANNELS 3 Zrotation Xrotation Yrotation
              JOINT lThumb1
              {
                OFFSET 1.2192 -0.487915 3.41376
                CHANNELS 3 Zrotation Xrotation Yrotation
                JOINT lThumb2
                {
                  OFFSET 3.37035 -0.52449 3.41376
                  CHANNELS 3 Zrotation Xrotation Yrotation
                  End Site
                  {
                    OFFSET 1.78271 -1.18214 1.43049
                  }
                }
              }
              JOINT lIndex1
              {
                OFFSET 7.75947 0.938293 5.60832
                CHANNELS 3 Zrotation Xrotation Yrotation
                JOINT lIndex2
                {
                  OFFSET 2.54057 -0.884171 1.56538
                  CHANNELS 3 Zrotation Xrotation Yrotation
                  End Site
                  {
                    OFFSET 1.62519 -0.234802 1.16502
                  }
                }
              }
              JOINT lMid1
              {
                OFFSET 8.24714 1.18213 3.41376
                CHANNELS 3 Zrotation Xrotation Yrotation
                JOINT lMid2
                {
                  OFFSET 3.10165 -0.590103 1.0647
                  CHANNELS 3 Zrotation Xrotation Yrotation
                  End Site
                  {
                    OFFSET 2.48547 -0.328903 0.83742
                  }
                }
              }
              JOINT lRing1
              {
                OFFSET 8.82822 0.546677 1.51678
                CHANNELS 3 Zrotation Xrotation Yrotation
                JOINT lRing2
                {
                  OFFSET 2.60934 -0.819778 -0.0198488
                  CHANNELS 3 Zrotation Xrotation Yrotation
                  End Site
                  {
                    OFFSET 2.33842 -0.294052 0.168128
                  }
                }
              }
              JOINT lPinky1
              {
                OFFSET 8.27202 -0.0477905 -0.4584
                CHANNELS 3 Zrotation Xrotation Yrotation
                JOINT lPinky2
                {
                  OFFSET 1.82734 -0.647385 -0.700984
                  CHANNELS 3 Zrotation Xrotation Yrotation
                  End Site
                  {
                    OFFSET 1.69225 -0.51767 -0.607171
                  }
                }
              }
            }
          }
        }
      }
    }
  }
  JOINT rButtock
  {
    OFFSET -8.77824 4.35084 1.2192
    CHANNELS 3 Zrotation Xrotation Yrotation
    JOINT rThigh
    {
      OFFSET 0 -1.70687 -2.19456
      CHANNELS 3 Zrotation Xrotation Yrotation
      JOINT rShin
      {
        OFFSET 0 -36.8199 0.73152
        CHANNELS 3 Zrotation Xrotation Yrotation
        JOINT rFoot
        {
          OFFSET 0.73152 -45.1104 -5.12064
          CHANNELS 3 Zrotation Xrotation Yrotation
          End Site
          {
            OFFSET -1.1221 -3.69964 12.103
          }
        }
      }
    }
  }
  JOINT lButtock
  {
    OFFSET 8.77824 4.35084 1.2192
    CHANNELS 3 Zrotation Xrotation Yrotation
    JOINT lThigh
    {
      OFFSET 0 -1.70687 -2.19456
      CHANNELS 3 Zrotation Xrotation Yrotation
      JOINT lShin
      {
        OFFSET 0 -36.8199 0.73152
        CHANNELS 3 Zrotation Xrotation Yrotation
        JOINT lFoot
        {
          OFFSET -0.73152 -45.1104 -5.12064
          CHANNELS 3 Zrotation Xrotation Yrotation
          End Site
          {
            OFFSET 1.1221 -3.69964 12.103
          }
        }
      }
    }
  }
}
MOTION
Frames:	4
Frame Time:	0.00833333
52.6275 85.5269 258.041 0.0 0.0 0.0 2.34101 -0.00222419 0.0637214 0.646597 0.00594982 0.111938 -3.68365e-14 0.0 1.73937e-16 -1.10006e-13 3.18055e-15 6.44497e-16 -0.0 0.0 0.0 -0.0 0.0 0.0 -1.83898e-14 -5.02785e-17 2.48481e-16 -3.83382e-13 -1.06847e-15 1.19271e-15 -6.65998e-12 1.94551e-12 1.08139e-13 -7.59767e-11 -2.16882e-12 1.59028e-13 -1.79275e-10 -4.85433e-13 6.07486e-13 -3.09611e-10 -8.36486e-13 1.05674e-12 -1.79271e-10 -4.82649e-13 5.97944e-13 7.73091 5.47488 0.417314 -1.79275e-10 -4.85333e-13 6.07486e-13 2.90554 0.965183 0.102902 -1.79267e-10 -4.85035e-13 6.06691e-13 10.2786 0.731801 0.0259123 -1.79279e-10 -4.82649e-13 6.13847e-13 2.22167 -0.733487 -0.20892 -1.8486e-14 -4.89197e-17 -4.96962e-17 -3.87338e-13 -1.06847e-15 -5.96354e-16 -6.61998e-12 -2.0278e-12 6.99722e-14 -7.6031e-11 1.80703e-12 2.09917e-13 -1.79299e-10 -4.77717e-13 5.97944e-13 -3.09636e-10 -8.23764e-13 1.0472e-12 -1.79304e-10 -4.78276e-13 6.07486e-13 -7.73091 5.47488 -0.417314 -1.79299e-10 -4.78475e-13 5.94764e-13 -2.90554 0.965183 -0.102902 -1.79306e-10 -4.77381e-13 6.01125e-13 -10.2786 0.731801 -0.0259123 -1.79295e-10 -4.75095e-13 5.94764e-13 -2.22167 -0.733487 0.20892 -2.03217e-16 0.0 -3.88251e-19 2.21549 -8.02973 -0.23136 0.00607169 8.97369 0.152072 -0.477693 -0.951457 0.0348644 2.03217e-16 0.0 3.88251e-19 1.35207 -1.92788 -0.00535806 0.00846651 -2.07867 0.0694595 0.423856 3.99897 -0.127289
53.3488 84.4678 245.795 179.729 1.3715 177.564 2.05635 0.875899 0.260242 0.84991 -1.64383 0.209346 -1.26904 2.80564 -0.317044 1.66532 -6.29889 -0.186687 -0.0 0.0 0.0 -0.0 0.0 0.0 -1.38376e-14 7.30011e-15 -1.15594e-14 21.5042 14.9859 -1.00748 -4.88848 -2.37266 7.46393 0.115293 7.5456 1.02757 -5.90281e-11 -2.45736e-10 1.09572e-10 -9.89218e-11 -4.23067e-10 1.87673e-10 -5.9024e-11 -2.45735e-10 1.09565e-10 7.73091 5.47488 0.417314 -5.90286e-11 -2.45737e-10 1.09571e-10 2.90554 0.965183 0.102902 -5.90204e-11 -2.45736e-10 1.09569e-10 10.2786 0.731801 0.0259123 -5.90327e-11 -2.45734e-10 1.09576e-10 2.22167 -0.733487 -0.20892 -1.39023e-14 7.30072e-15 -1.18599e-14 -22.1302 10.9309 3.61105 5.3094 -2.67815 -7.984 -0.0344688 4.12403 -0.574202 -2.17872e-10 -1.94919e-10 -1.16515e-10 -3.78163e-10 -3.37593e-10 -2.00508e-10 -2.17877e-10 -1.94918e-10 -1.16505e-10 -7.73091 5.47488 -0.417314 -2.17872e-10 -1.94918e-10 -1.16517e-10 -2.90554 0.965183 -0.102902 -2.17879e-10 -1.94917e-10 -1.16511e-10 -10.2786 0.731801 -0.0259123 -2.17868e-10 -1.94916e-10 -1.16518e-10 -2.22167 -0.733487 0.20892 -2.03217e-16 0.0 -3.88251e-19 3.37234 -9.33013 3.13637 0.0262815 15.5316 0.286475 -1.76912 -6.36946 -6.88158 2.03217e-16 0.0 3.88251e-19 0.0712387 -4.15078 -4.04583 -0.0337728 5.99115 -0.126881 1.16806 -2.59395 4.8854
53.3382 84.4528 245.87 179.568 1.6185 177.712 1.74775 1.80972 0.459773 1.07451 -3.37712 0.310285 -2.5755 5.759 -0.651928 3.3808 -12.9444 -0.385819 -0.0 0.0 0.0 -0.0 0.0 0.0 -8.75902e-15 1.5434e-14 -2.50686e-14 44.8892 30.8082 -2.3187 -9.399 -4.75356 15.4086 -0.0670685 15.4967 2.1724 6.44293e-11 -5.10605e-10 2.23984e-10 1.17474e-10 -8.79286e-10 3.83713e-10 6.44341e-11 -5.10607e-10 2.23979e-10 7.73091 5.47488 0.417314 6.44291e-11 -5.10608e-10 2.23982e-10 2.90554 0.965183 0.102902 6.44366e-11 -5.10607e-10 2.2398e-10 10.2786 0.731801 0.0259123 6.44245e-11 -5.10604e-10 2.23985e-10 2.22167 -0.733487 -0.20892 -8.79052e-15 1.54338e-14 -2.5373e-14 -47.1285 22.3457 7.89175 10.1214 -5.3382 -16.4835 0.0198197 8.46172 -1.18831 -2.57876e-10 -4.09519e-10 -2.48328e-10 -4.49367e-10 -7.09376e-10 -4.27465e-10 -2.5788e-10 -4.09517e-10 -2.48317e-10 -7.73091 5.47488 -0.417314 -2.57875e-10 -4.09518e-10 -2.48329e-10 -2.90554 0.965183 -0.102902 -2.57884e-10 -4.09516e-10 -2.48323e-10 -10.2786 0.731801 -0.0259123 -2.57873e-10 -4.09516e-10 -2.4833e-10 -2.22167 -0.733487 0.20892 -2.03217e-16 0.0 -3.88251e-19 4.76612 -10.6493 6.72444 0.0113809 22.4637 0.442649 -4.57068 -11.8247 -14.4159 2.03217e-16 0.0 3.88251e-19 -1.62253 -6.44276 -8.34305 -0.0167357 14.5215 -0.343907 3.21365 -9.43965 10.3004
53.3251 84.4496 245.905 179.634 1.3648 177.725 1.46895 2.632 0.653883 1.27343 -4.94329 0.405412 -3.71311 8.41587 -0.960334 4.86686 -18.8958 -0.58839 -0.0 0.0 0.0 -0.0 0.0 0.0 -4.73311e-15 2.20009e-14 -3.51752e-14 66.6431 44.8901 -4.12288 -12.853 -6.63587 22.5316 -0.523083 22.6064 3.31064 1.81465e-10 -7.36236e-10 3.275e-10 3.22457e-10 -1.26753e-09 5.60906e-10 1.8147e-10 -7.3624e-10 3.27498e-10 7.73091 5.47488 0.417314 1.81465e-10 -7.3624e-10 3.27497e-10 2.90554 0.965183 0.102902 1.81472e-10 -7.36239e-10 3.27495e-10 10.2786 0.731801 0.0259123 1.8146e-10 -7.36236e-10 3.27499e-10 2.22167 -0.733487 -0.20892 -4.7351e-15 2.2e-14 -3.54803e-14 -71.1317 32.223 12.6021 13.7459 -7.41174 -24.14 0.149546 12.3671 -1.75897 -2.95018e-10 -5.83801e-10 -3.50741e-10 -5.15217e-10 -1.01113e-09 -6.03619e-10 -2.95022e-10 -5.83798e-10 -3.50731e-10 -7.73091 5.47488 -0.417314 -2.95017e-10 -5.83798e-10 -3.50742e-10 -2.90554 0.965183 -0.102902 -2.95027e-10 -5.83797e-10 -3.50735e-10 -10.2786 0.731801 -0.0259123 -2.95016e-10 -5.83798e-10 -3.50743e-10 -2.22167 -0.733487 0.20892 -2.03217e-16 0.0 -3.88251e-19 6.14956 -11.7969 9.95503 -0.0388434 28.6465 0.601215 -8.31591 -16.2038 -21.4793 2.03217e-16 0.0 3.88251e-19 -3.43172 -8.43464 -12.2292 0.0574691 22.1299 -0.558539 6.17182 -15.2638 15.4531
